Coordinates
version=1
nRows=8
nColumns=40
inDegrees=yes

Units are S.I. units (second, meters, Newtons, ...)
If the header above contains a line with 'inDegrees', this indicates whether rotational values are in degrees (yes) or radians (no).

endheader
time	pelvis_tilt	pelvis_list	pelvis_rotation	pelvis_tx	pelvis_ty	pelvis_tz	hip_flexion_r	hip_adduction_r	hip_rotation_r	knee_angle_r	knee_angle_r_beta	ankle_angle_r	subtalar_angle_r	mtp_angle_r	hip_flexion_l	hip_adduction_l	hip_rotation_l	knee_angle_l	knee_angle_l_beta	ankle_angle_l	subtalar_angle_l	mtp_angle_l	lumbar_extension	lumbar_bending	lumbar_rotation	arm_flex_r	arm_add_r	arm_rot_r	elbow_flex_r	pro_sup_r	wrist_flex_r	wrist_dev_r	arm_flex_l	arm_add_l	arm_rot_l	elbow_flex_l	pro_sup_l	wrist_flex_l	wrist_dev_l
      4.94000000	     -1.38517299	     -2.45575925	     -1.89370774	     -0.30588589	      0.86771617	     -1.00142788	      3.90173861	     -3.82216251	     -5.41745879	     78.57338550	      1.37136428	    -23.59686341	      0.00000000	      0.00000000	     39.34771613	     -6.23976537	    -12.18031209	     76.46774375	      1.33461390	     23.89198126	      0.00000000	      0.00000000	    -12.58295104	     -4.34782790	      7.59262750	     89.90524463	    -16.92912433	     28.91233771	     35.22160410	     85.02069405	      0.00000000	      0.00000000	     89.94617895	    -20.49977899	     38.40598914	     53.70884479	     84.48973871	      0.00000000	      0.00000000
      4.94500000	     -1.38253895	     -2.48068496	     -1.88182538	     -0.30569787	      0.86877322	     -1.00132573	      3.92225541	     -3.81117805	     -5.45157907	     78.55052840	      1.37096535	    -23.57370638	      0.00000000	      0.00000000	     39.26018633	     -6.25285825	    -12.14985865	     76.32821989	      1.33217875	     23.85258882	      0.00000000	      0.00000000	    -12.52751357	     -4.32357630	      7.59618700	     89.90360115	    -16.95270412	     28.92275661	     35.19668296	     85.02073968	      0.00000000	      0.00000000	     89.94581415	    -20.51956408	     38.39272457	     53.72977353	     84.46151098	      0.00000000	      0.00000000
      4.95000000	     -1.26318433	     -2.49128127	     -1.86470987	     -0.30546742	      0.87028945	     -1.00131305	      3.77877056	     -3.78988756	     -5.46325679	     78.41120350	      1.36853367	    -23.49371541	      0.00000000	      0.00000000	     38.92390495	     -6.21521927	    -12.15098146	     75.93579494	      1.32532964	     23.66285255	      0.00000000	      0.00000000	    -12.57593167	     -4.31692986	      7.55910805	     89.90414334	    -16.95143631	     29.27458148	     34.96764903	     85.04960093	      0.00000000	      0.00000000	     89.94560008	    -20.57643780	     38.59473079	     53.72188529	     84.25936492	      0.00000000	      0.00000000
      4.95500000	     -1.24944307	     -2.52610902	     -1.81587222	     -0.30530047	      0.87160603	     -1.00129433	      3.78453013	     -3.76906407	     -5.54790701	     78.36939108	      1.36780391	    -23.46807749	      0.00000000	      0.00000000	     38.77015631	     -6.22903115	    -12.17003429	     75.67790957	      1.32082869	     23.58519548	      0.00000000	      0.00000000	    -12.54980351	     -4.26678617	      7.53393659	     89.90251213	    -16.99056730	     29.32708257	     34.94309040	     85.05250977	      0.00000000	      0.00000000	     89.94531756	    -20.60924067	     38.61092357	     53.73451886	     84.20217334	      0.00000000	      0.00000000
      4.96000000	     -1.24487498	     -2.54709895	     -1.81527165	     -0.30526781	      0.87268770	     -1.00122757	      3.81240916	     -3.75992070	     -5.57757708	     78.35426174	      1.36753985	    -23.45673062	      0.00000000	      0.00000000	     38.71637913	     -6.24091971	    -12.14641148	     75.59756267	      1.31942637	     23.56053458	      0.00000000	      0.00000000	    -12.50736452	     -4.25747202	      7.54327958	     89.90173827	    -16.99428583	     29.32204934	     34.96520957	     85.05107963	      0.00000000	      0.00000000	     89.94515479	    -20.61149626	     38.59640403	     53.75191235	     84.19126077	      0.00000000	      0.00000000
      4.96500000	     -1.20193999	     -2.62832064	     -1.79851505	     -0.30511260	      0.87416539	     -1.00122166	      3.80790186	     -3.67992933	     -5.62736424	     78.35942012	      1.36762988	    -23.40505793	      0.00000000	      0.00000000	     38.46236039	     -6.25757185	    -12.07826958	     75.15745044	      1.31174497	     23.39645855	      0.00000000	      0.00000000	    -12.50854648	     -4.15841972	      7.55856667	     89.90082011	    -17.02525074	     29.45836678	     34.85132977	     85.06370617	      0.00000000	      0.00000000	     89.94452354	    -20.65592637	     38.68458935	     53.76136130	     84.13767949	      0.00000000	      0.00000000
      4.97000000	     -0.98192834	     -2.58270044	     -1.70133696	     -0.30471548	      0.87578432	     -1.00132610	      3.50723185	     -3.75537019	     -5.72749441	     78.21508621	      1.36511078	    -23.35261051	      0.00000000	      0.00000000	     38.04801908	     -6.14445155	    -12.08152026	     74.85481617	      1.30646300	     23.18302141	      0.00000000	      0.00000000	    -12.66408141	     -4.21118712	      7.43436827	     89.90162701	    -17.08402292	     29.92452018	     34.73108442	     85.09958627	      0.00000000	      0.00000000	     89.94448085	    -20.74430804	     38.94867413	     53.76128514	     83.92653476	      0.00000000	      0.00000000
      4.97500000	     -1.00275900	     -2.64261616	     -1.70342302	     -0.30465205	      0.87699133	     -1.00130901	      3.56387593	     -3.71909744	     -5.76300056	     78.19054916	      1.36468253	    -23.35923929	      0.00000000	      0.00000000	     37.94479146	     -6.18040196	    -12.07289942	     74.61939978	      1.30235421	     23.12630415	      0.00000000	      0.00000000	    -12.60415160	     -4.12952183	      7.47204890	     89.90053042	    -17.10535648	     29.94472316	     34.72517613	     85.09637656	      0.00000000	      0.00000000	     89.94423433	    -20.76285494	     38.93878899	     53.79062084	     83.89144966	      0.00000000	      0.00000000
